<svg width="94" height="100" viewBox="0 0 94 100" fill="none" xmlns="http://www.w3.org/2000/svg">
<path d="M1.73707 63.265C-0.0304751 56.6545 -0.449104 50.0906 0.481183 43.5733C1.41147 37.056 3.4581 31.0507 6.62107 25.5575C9.87708 20.0643 14.0634 15.316 19.1799 11.3124C24.2965 7.21582 30.1573 4.28302 36.7624 2.51402C41.5068 1.21055 46.2513 0.651925 50.9957 0.838138C55.7402 1.02435 60.2986 1.81574 64.671 3.21231C69.1363 4.60889 73.2761 6.61064 77.0903 9.21758C80.9975 11.7314 84.4395 14.7573 87.4165 18.2953L84.0674 30.5852H82.8115C80.6719 26.3023 78.0206 22.2523 74.8576 18.435C71.6946 14.5246 68.1595 11.2659 64.2523 8.65895C60.3451 6.05201 56.0658 4.23647 51.4144 3.21231C46.856 2.18816 42.065 2.32781 37.0414 3.63128C32.5761 4.84165 28.6689 6.79685 25.3198 9.49689C21.9708 12.1969 19.1799 15.3625 16.9473 18.9936C14.7146 22.5316 12.9935 26.442 11.7842 30.7248C10.5748 35.0076 9.92359 39.337 9.83056 43.713H12.6214C18.2031 43.713 23.7383 43.4802 29.227 43.0147C34.8088 42.456 39.8323 41.8043 44.2977 41.0595C49.5073 40.3146 54.5308 39.4301 59.3683 38.406H60.6242V50.2769H59.3683C54.5308 49.3458 49.5073 48.4613 44.2977 47.6234C39.8323 46.9716 34.8088 46.3665 29.227 45.8078C23.7383 45.2492 18.2031 44.9699 12.6214 44.9699H9.69102C9.69102 47.6699 9.83056 50.3234 10.1096 52.9303C10.3887 55.5373 10.9004 58.0977 11.6446 60.6115C13.6913 68.4323 16.9473 74.9497 21.4126 80.1635C25.878 85.3774 30.855 89.3344 36.3437 92.0344C41.9254 94.7345 47.6932 96.2241 53.6471 96.5035C59.6939 96.6897 65.3687 95.6655 70.6713 93.431C75.9739 91.1965 80.5789 87.7981 84.4861 83.236C88.4863 78.6739 91.1841 72.9014 92.5796 65.9185L93.8354 66.1978C92.347 73.7393 89.3235 80.0704 84.7651 85.1912C80.2067 90.2189 74.8576 93.9896 68.7177 96.5035C62.6708 98.9242 56.1588 100.088 49.1817 99.9949C42.2976 99.9018 35.6925 98.5052 29.3666 95.8052C23.0406 93.012 17.3659 88.9154 12.3423 83.5153C7.41182 78.1152 3.87673 71.3651 1.73707 63.265Z" fill="#FF7F50"/>
</svg>
